<?xml version="1.0" encoding="utf-8"?>
<svg
  role="img"
  aria-label="Search bar"
  id="svg-search"
  class="svg-search"
  version="1.1"
  id="search"
  xmlns="http://www.w3.org/2000/svg"
  xmlns:xlink="http://www.w3.org/1999/xlink"
  viewBox="0 0 75 75"
  xml:space="preserve"
>
  <title>Search</title>
  <path d="M50.9,43.9c-1.5-1.5-2.8,0-2.8,0l-7.7-7.7c6.7-8.8,6.1-21.5-2-29.6c-8.8-8.8-23.1-8.8-31.9,0
	c-8.8,8.8-8.8,23.1,0,31.9c8.1,8.1,20.8,8.7,29.6,2l7.7,7.7c0,0-1.6,1.2,0,2.8c6,6,24.1,24.1,24.1,24.1l7.1-7.1
	C75,67.9,56.9,49.8,50.9,43.9z M10.1,34.9c-6.8-6.8-6.8-17.9,0-24.8c6.8-6.8,17.9-6.8,24.8,0c6.8,6.8,6.8,17.9,0,24.8
	C28.1,41.7,17,41.7,10.1,34.9z"/>
</svg>
