<?xml version="1.0" encoding="utf-8"?>
<!DOCTYPE svg PUBLIC "-//W3C//DTD SVG 1.1//EN" "http://www.w3.org/Graphics/SVG/1.1/DTD/svg11.dtd">
<svg version="1.1" id="Layer_1" xmlns="http://www.w3.org/2000/svg" xmlns:xlink="http://www.w3.org/1999/xlink" x="0px" y="0px"
	 width="381px" height="309.5px" viewBox="239.5 194 381 309.5" enable-background="new 239.5 194 381 309.5" xml:space="preserve">
<path opacity="0.3" fill="#FCF3F3" d="M253.935,309.819c7.239,0,14.821,1.1,21.408,3.015c0.075,3.311,0.459,8.541,0.809,11.831
	c-5.797-1.096-12.192-1.217-18.726-0.317c-4.846,0.666-9.438,1.858-13.508,3.475c-0.305-4.953-0.508-11.983-0.248-17.211
	C246.82,310.092,250.263,309.819,253.935,309.819z M261.344,291.556c5.478,0.957,10.656,2.62,15.012,4.782
	c-0.583,5.128-1.062,8.418-1.049,13.65c-6.613-1.851-14.07-2.889-21.372-2.889c-3.585,0-6.971,0.256-10.11,0.737
	c0.422-6.085,1.409-10.415,2.622-16.84C250.97,290.46,256.042,290.635,261.344,291.556z M276.474,327.482
	c0.522,4.088,1.253,8.133,2.218,12.09c-8.799-0.839-16.467,0.748-21.75,2.435c-3.786,1.196-7.363,2.796-10.433,4.612
	c-1.132-5.128-1.935-10.44-2.387-15.936C253.313,326.84,265.624,325.228,276.474,327.482z M251.441,270.864
	c8.968,0.226,19.495,2.562,28.331,6.921c-1.304,5.056-2.342,10.323-3.068,15.713c-4.414-2.08-9.528-3.681-14.903-4.617
	c-5.226-0.915-10.254-1.13-14.808-0.664C248.156,282.545,249.634,276.761,251.441,270.864z M279.42,342.38
	c1.049,3.84,2.322,7.601,3.833,11.216c-18.027,0.383-25.678,5.878-30.749,12.012c-2.168-5.153-3.964-10.567-5.357-16.235
	c2.78-1.718,6.328-3.414,10.596-4.782C262.978,342.927,270.651,341.367,279.42,342.38z M284.012,199.083l-0.255,17.385
	c-6.68-0.095-12.16,5.288-12.26,12.039c-0.099,6.752,5.233,12.303,11.913,12.398c6.68,0.101,12.168-5.294,12.267-12.045
	c0.042-3.372-1.267-6.45-3.417-8.692l12.329-12.108c5.226,5.433,8.395,12.882,8.277,21.052
	c-0.218,15.064-11.527,27.338-25.958,28.984c0,0-4.765,11.147-6.425,17.045c-8.838-4.238-19.203-6.575-28.208-6.938
	c2.187-6.791,8.258-21.261,8.258-21.261c-3.989-5.137-6.332-11.637-6.231-18.683C254.53,211.91,267.83,198.853,284.012,199.083z
	 M284.434,356.294c1.921,4.202,4.177,8.202,6.787,11.958c-9.438,0.296-16.921,2.664-22.75,7.19
	c-2.853,2.211-5.016,4.706-6.755,7.217c-3.014-4.469-5.679-9.229-7.973-14.26c2.106-2.73,4.636-5.334,8.346-7.42
	C267.513,357.931,274.852,356.383,284.434,356.294z M293.178,370.939c1.995,2.61,4.183,5.09,6.57,7.398
	c-7.029,3.23-13.108,9.62-16.643,14.991c-1.976,2.992-3.405,5.95-4.232,8.685c-5.81-5.02-11.004-10.702-15.499-16.965
	c1.703-2.612,3.84-5.217,6.73-7.444C275.846,373.141,283.42,370.95,293.178,370.939z M301.922,380.369
	c3.543,3.151,7.482,5.959,11.838,8.377c-3.243,3.984-6.109,8.172-8.358,12.241c-2.958,5.344-4.816,10.352-5.574,14.951
	c-6.736-3.371-12.996-7.396-18.682-12.027c0.666-2.761,2.088-5.893,4.196-9.078C289.089,389.152,295.322,383.045,301.922,380.369z
	 M328.804,394.953c-4.704,8.156-8.301,17.872-7.451,29.096c-6.66-1.771-13.006-4.076-18.984-6.878
	c1.25-9.1,7.252-19.13,13.833-27.132C320.079,391.991,324.275,393.645,328.804,394.953z M331.515,395.681
	c4.121,1.033,8.775,1.801,13.155,2.26v29.989c-6.886-0.536-13.995-1.608-20.557-3.19c-0.579-5.735,0.056-11.394,1.92-17.155
	C327.283,403.718,329.071,399.818,331.515,395.681z M355.625,398.461v-47.063h38.814c0,0,0-18.969,0-52.882
	c0-33.908,30.143-61.404,67.311-61.404c37.173,0,67.307,27.496,67.307,61.404c0,13.769,0,52.882,0,52.882h37.876v43.943l8.231,0.226
	c0.828,9.598,0.069,23.37-0.396,29.896c-2.439-0.158-5.021-0.248-7.519-0.248V503.5H355.627v-75.16c0,0-5.321-0.077-8.453-0.234
	V398.17C349.678,398.362,353.121,398.461,355.625,398.461z M485.326,314.688h-48.567c0,0-1.491,24.552,24.287,24.552
	C485.326,339.239,485.326,314.688,485.326,314.688z M594.927,398.18c0.366,2.947,0.621,6.705,0.556,10.767
	c-0.095,5.38-0.786,12.722-3.313,19.394c-4.689-1.265-9.715-2.162-15.114-2.663c0.477-6.503,1.263-20.067,0.461-29.941
	C583.505,396.179,589.323,396.997,594.927,398.18z M597.705,398.794c6.065,1.429,11.883,3.281,17.418,5.532
	c0.74,7.713-3.803,18.832-10.019,28.747c-3.23-1.534-6.674-2.883-10.345-3.993c2.603-6.98,3.312-14.535,3.41-20.091
	C598.234,405.332,598.035,401.791,597.705,398.794z M620.499,443.232c0,0-8.163-6.4-12.977-8.942
	c5.762-9.261,10.533-20.26,10.341-28.791c0.885,0.388,2.633,1.197,2.633,1.197L620.499,443.232z M461.17,295.496
	c10.296,0,18.645-8.386,18.645-18.73s-8.349-18.729-18.645-18.729c-10.294,0-18.644,8.385-18.644,18.729
	S450.876,295.496,461.17,295.496z"/>
<g id="XMLID_2_" opacity="0.4">
	<g>
		<path fill="#FCF3F3" d="M451.782,266.483c-3.009,2.629-4.904,6.503-4.904,10.819c0,7.932,6.396,14.361,14.292,14.361
			c7.896,0,14.292-6.43,14.292-14.361c0-4.316-1.894-8.19-4.901-10.819c0.052,0.389,0.077,0.782,0.077,1.184
			c0,5.254-4.235,9.516-9.468,9.516c-5.226,0-9.467-4.262-9.467-9.516C451.703,267.266,451.73,266.872,451.782,266.483z"/>
	</g>
	<g>
	</g>
</g>
</svg>
