<?xml version="1.0" encoding="utf-8"?>
<!DOCTYPE svg PUBLIC "-//W3C//DTD SVG 1.1//EN" "http://www.w3.org/Graphics/SVG/1.1/DTD/svg11.dtd">
<svg version="1.1" id="Layer_1" xmlns="http://www.w3.org/2000/svg" xmlns:xlink="http://www.w3.org/1999/xlink" x="0px" y="0px"
	 width="622px" height="502px" viewBox="-1.556 0.294 622 502" enable-background="new -1.556 0.294 622 502" xml:space="preserve">
<path opacity="0.4" fill="#FCF3F3" d="M16.524,184.179c11.907,0,24.377,1.807,35.211,4.953c0.123,5.438,0.756,14.029,1.33,19.433
	c-9.534-1.8-20.053-2-30.799-0.522c-7.972,1.094-15.524,3.052-22.218,5.708c-0.501-8.137-0.835-19.683-0.408-28.27
	C4.822,184.628,10.485,184.179,16.524,184.179z M28.71,154.183c9.01,1.571,17.527,4.303,24.691,7.854
	c-0.96,8.422-1.747,13.826-1.725,22.419c-10.877-3.04-23.143-4.745-35.153-4.745c-5.897,0-11.466,0.421-16.629,1.212
	c0.694-9.995,2.317-17.106,4.311-27.659C11.647,152.384,19.99,152.67,28.71,154.183z M53.596,213.191
	c0.86,6.714,2.062,13.358,3.648,19.858c-14.472-1.379-27.084,1.229-35.773,3.998c-6.227,1.965-12.111,4.593-17.161,7.575
	c-1.862-8.422-3.181-17.147-3.925-26.173C15.501,212.136,35.75,209.488,53.596,213.191z M12.423,120.197
	c14.75,0.371,32.064,4.209,46.598,11.368c-2.145,8.304-3.852,16.955-5.046,25.808c-7.26-3.417-15.671-6.045-24.513-7.584
	c-8.595-1.503-16.865-1.856-24.355-1.09C7.018,139.384,9.45,129.882,12.423,120.197z M58.441,237.66
	c1.727,6.308,3.819,12.484,6.306,18.423c-29.651,0.628-42.234,9.654-50.575,19.728c-3.565-8.465-6.521-17.356-8.812-26.667
	c4.572-2.821,10.407-5.607,17.428-7.854C31.398,238.558,44.019,235.997,58.441,237.66z M65.994,2.299l-0.419,28.555
	C54.587,30.697,45.574,39.54,45.41,50.627c-0.163,11.091,8.607,20.208,19.594,20.364c10.987,0.165,20.013-8.694,20.176-19.785
	c0.07-5.538-2.083-10.593-5.62-14.275l20.277-19.888c8.596,8.923,13.808,21.158,13.615,34.577
	c-0.358,24.742-18.961,44.901-42.695,47.606c0,0-7.839,18.31-10.568,27.996c-14.537-6.961-31.585-10.799-46.395-11.396
	c3.597-11.154,13.583-34.92,13.583-34.92c-6.561-8.437-10.415-19.114-10.249-30.686C17.504,23.367,39.377,1.921,65.994,2.299z
	 M66.688,260.512c3.161,6.903,6.871,13.474,11.163,19.643C62.326,280.641,55.587,284.568,46,292
	c-4.692,3.633-10.867,12.703-13.729,16.827c-4.957-7.342-12.292-20.167-16.064-28.43c3.463-4.485,7.625-8.763,13.726-12.188
	C38.857,263.201,50.928,260.659,66.688,260.512z M81.07,284.568c3.281,4.289,6.879,8.36,10.806,12.152
	c-11.562,5.306-21.561,15.8-27.375,24.623c-3.25,4.914-5.6,9.773-6.96,14.264C47.985,327.363,42.393,323.036,35,312.75
	c2.8-4.292,8.935-13.54,13.688-17.197C58.131,288.222,65.021,284.587,81.07,284.568z M95.452,300.056
	c5.828,5.176,12.307,9.789,19.472,13.759c-5.334,6.544-10.048,13.423-13.749,20.106c-4.866,8.776-7.921,17.003-9.167,24.556
	c-11.08-5.536-21.375-12.149-30.728-19.754c1.094-4.531,3.435-9.678,6.901-14.909C74.346,314.482,84.597,304.452,95.452,300.056z
	 M139.668,324.01c-7.738,13.396-13.654,29.355-12.256,47.789c-10.954-2.907-21.393-6.696-31.225-11.297
	c2.055-14.945,11.928-31.42,22.751-44.562C125.316,319.145,132.219,321.861,139.668,324.01z M144.126,325.204
	c6.778,1.699,14.434,2.958,21.638,3.712v49.258c-11.327-0.882-23.019-2.644-33.813-5.241c-0.951-9.419,0.093-18.714,3.159-28.177
	C137.166,338.407,140.106,332,144.126,325.204z M183.782,329.771v-77.301h63.841c0,0,0-31.155,0-86.856
	c0-55.694,49.578-100.855,110.711-100.855c61.142,0,110.705,45.162,110.705,100.855c0,22.614,0,86.856,0,86.856h62.296v72.176
	l13.541,0.372c1.363,15.764,0.114,38.384-0.652,49.102c-4.012-0.258-8.257-0.406-12.365-0.406v128.58H183.786V378.848
	c0,0-8.751-0.127-13.904-0.386v-49.167C174.001,329.609,179.665,329.771,183.782,329.771z M397.113,192.176H317.23
	c0,0-2.453,40.325,39.947,40.325C397.113,232.501,397.113,192.176,397.113,192.176z M577.382,329.311
	c0.603,4.841,1.023,11.012,0.915,17.682c-0.156,8.839-1.294,20.896-5.45,31.855c-7.712-2.079-15.979-3.551-24.86-4.374
	c0.786-10.681,2.075-32.963,0.76-49.18C558.595,326.023,568.166,327.368,577.382,329.311z M581.953,330.318
	c9.975,2.347,19.544,5.391,28.648,9.087c1.217,12.668-6.255,30.933-16.479,47.217c-5.314-2.521-10.977-4.734-17.015-6.558
	c4.281-11.466,5.448-23.876,5.61-33.002C582.822,341.058,582.495,335.241,581.953,330.318z M619.444,403.307
	c0,0-13.428-10.511-21.345-14.688c9.477-15.209,17.326-33.274,17.009-47.286c1.456,0.637,4.331,1.964,4.331,1.964L619.444,403.307z
	 M357.382,160.654c16.935,0,30.666-13.772,30.666-30.764s-13.731-30.763-30.666-30.763c-16.931,0-30.665,13.771-30.665,30.763
	S340.451,160.654,357.382,160.654z"/>
<g id="XMLID_2_" opacity="0.4">
	<g>
		<path fill="#FCF3F3" d="M341.941,113.002c-4.95,4.318-8.068,10.681-8.068,17.77c0,13.028,10.522,23.588,23.508,23.588
			c12.987,0,23.507-10.56,23.507-23.588c0-7.089-3.115-13.452-8.062-17.77c0.085,0.639,0.127,1.285,0.127,1.944
			c0,8.629-6.965,15.629-15.571,15.629c-8.595,0-15.572-7-15.572-15.629C341.81,114.288,341.855,113.641,341.941,113.002z"/>
	</g>
	<g>
	</g>
</g>
</svg>
